<svg width="54" height="54" viewBox="0 0 54 54" fill="none" xmlns="http://www.w3.org/2000/svg">
<rect width="54" height="54" rx="27" fill="#ED91AA"/>
<path d="M13.5 37.8H40.5V40.5H13.5V37.8ZM16.2 27H18.9V36.45H16.2V27ZM22.95 27H25.65V36.45H22.95V27ZM28.35 27H31.05V36.45H28.35V27ZM35.1 27H37.8V36.45H35.1V27ZM13.5 20.25L27 13.5L40.5 20.25V25.65H13.5V20.25ZM16.2 21.9186V22.95H37.8V21.9186L27 16.5186L16.2 21.9186ZM27 21.6C26.642 21.6 26.2986 21.4578 26.0454 21.2046C25.7922 20.9514 25.65 20.608 25.65 20.25C25.65 19.892 25.7922 19.5486 26.0454 19.2954C26.2986 19.0422 26.642 18.9 27 18.9C27.358 18.9 27.7014 19.0422 27.9546 19.2954C28.2078 19.5486 28.35 19.892 28.35 20.25C28.35 20.608 28.2078 20.9514 27.9546 21.2046C27.7014 21.4578 27.358 21.6 27 21.6Z" fill="white"/>
</svg>
