<svg width="241" height="238" viewBox="0 0 241 238" fill="none" xmlns="http://www.w3.org/2000/svg">
<path d="M229.495 40.8627V189.814H17.0984V40.8627C17.0968 38.8893 17.4843 36.9349 18.2388 35.1113C18.9933 33.2878 20.0999 31.6309 21.4954 30.2354C22.8908 28.84 24.5477 27.7334 26.3712 26.9789C28.1948 26.2244 30.1492 25.8369 32.1227 25.8385H214.471C218.456 25.8385 222.277 27.4214 225.095 30.239C227.912 33.0566 229.495 36.8781 229.495 40.8627Z" stroke="#ADB9EE" stroke-width="2.98818" stroke-linecap="round" stroke-linejoin="round"/>
<path d="M229.495 40.8627V41.5324H17.0984V40.8627C17.0968 38.8893 17.4843 36.9349 18.2388 35.1113C18.9933 33.2878 20.0999 31.6309 21.4954 30.2354C22.8908 28.84 24.5477 27.7334 26.3712 26.9789C28.1948 26.2244 30.1492 25.8369 32.1227 25.8385H214.471C218.456 25.8385 222.277 27.4214 225.095 30.239C227.912 33.0566 229.495 36.8781 229.495 40.8627Z" stroke="#ADB9EE" stroke-width="2.98818" stroke-linecap="round" stroke-linejoin="round"/>
<path d="M200.749 33.6908C200.749 34.2326 200.588 34.7623 200.287 35.2128C199.986 35.6633 199.558 36.0144 199.058 36.2217C198.557 36.4291 198.006 36.4833 197.475 36.3776C196.944 36.2719 196.456 36.011 196.072 35.6279C195.689 35.2448 195.428 34.7567 195.323 34.2253C195.217 33.6939 195.271 33.1431 195.479 32.6425C195.686 32.1419 196.037 31.7141 196.488 31.4131C196.938 31.1121 197.468 30.9514 198.009 30.9514C198.736 30.9514 199.433 31.24 199.947 31.7538C200.46 32.2675 200.749 32.9643 200.749 33.6908Z" fill="#ADB9EE"/>
<path d="M209.663 33.6908C209.663 34.2326 209.502 34.7623 209.201 35.2128C208.9 35.6633 208.472 36.0144 207.972 36.2217C207.471 36.4291 206.92 36.4833 206.389 36.3776C205.857 36.2719 205.369 36.011 204.986 35.6279C204.603 35.2448 204.342 34.7567 204.237 34.2253C204.131 33.6939 204.185 33.1431 204.392 32.6425C204.6 32.1419 204.951 31.7141 205.401 31.4131C205.852 31.1121 206.381 30.9514 206.923 30.9514C207.65 30.9514 208.347 31.24 208.86 31.7538C209.374 32.2675 209.663 32.9643 209.663 33.6908Z" fill="#ADB9EE"/>
<path d="M218.575 33.6908C218.575 34.2326 218.414 34.7623 218.113 35.2128C217.812 35.6633 217.384 36.0144 216.884 36.2217C216.383 36.4291 215.832 36.4833 215.301 36.3776C214.77 36.2719 214.281 36.011 213.898 35.6279C213.515 35.2448 213.254 34.7567 213.149 34.2253C213.043 33.6939 213.097 33.1431 213.305 32.6425C213.512 32.1419 213.863 31.7141 214.313 31.4131C214.764 31.1121 215.294 30.9514 215.835 30.9514C216.562 30.9514 217.259 31.24 217.772 31.7538C218.286 32.2675 218.575 32.9643 218.575 33.6908Z" fill="#ADB9EE"/>
<path d="M21.6281 105.622C21.0802 99.3888 48.584 87.591 53.1011 96.698L44.1644 105.622C44.1644 105.622 25.5729 112.964 21.6281 105.622Z" fill="#445FD1"/>
<path d="M35.1063 61.086C31.0884 48.6673 30.8084 47.1454 33.4748 46.1836C36.1412 45.2217 42.9349 59.3693 43.702 61.086C46.3882 66.5201 48.4586 72.2374 49.8748 78.1314C51.0923 83.6346 52.6142 96.3211 52.8699 99.3771C53.917 112.271 32.6591 116.179 31.7337 106.159C30.8084 96.1385 30.711 92.8877 30.711 92.8877C30.711 92.8877 19.7533 93.9348 18.2071 85.7287C17.2417 79.3115 16.8708 72.8189 17.0991 66.3336C17.0991 66.3336 0.419044 63.5698 1.01563 59.1745C1.61222 54.7793 34.2418 63.6672 34.2418 63.6672L35.1063 61.086Z" fill="#FEBD9D"/>
<path d="M17.0991 66.3336C17.0991 66.3336 0.419044 63.5698 1.01563 59.1745C1.61222 54.7793 34.2418 63.6672 34.2418 63.6672L35.1063 61.086C31.0884 48.6673 30.8084 47.1454 33.4748 46.1836C36.1412 45.2217 42.9349 59.3693 43.702 61.086" stroke="#F49E74" stroke-width="1.11146" stroke-linecap="round" stroke-linejoin="round"/>
<path d="M34.2177 63.6671C32.8055 69.1541 33.0469 74.9362 34.9117 80.2863" stroke="#F49E74" stroke-width="1.11146" stroke-linecap="round" stroke-linejoin="round"/>
<path d="M26.4017 54.1578C29.0194 55.5214 31.077 55.8136 31.8562 52.088C32.6354 48.3624 29.0194 48.2406 27.8019 48.4354C25.9391 48.7398 25.2816 53.5612 26.4017 54.1578Z" fill="#683F1D"/>
<path d="M26.9248 53.1846C26.3404 55.1813 25.9142 57.6772 25.9264 57.6042C26.3647 57.8233 28.8728 58.6878 29.2624 57.8233C29.6545 56.3001 29.9312 54.7494 30.0903 53.1846H26.9248Z" fill="#683F1D"/>
<path d="M24.5622 58.846C23.1864 64.9336 16.1248 98.4886 15.8934 99.5843C15.6621 100.68 15.9665 105.745 16.4048 105.94C16.8431 106.135 19.2781 102.506 20.1913 100.668C21.1044 98.8295 29.0183 62.0481 29.5175 60.3314C30.735 56.1553 25.4631 54.8526 24.5622 58.846Z" fill="#683F1D"/>
<path d="M18.341 77.8757C14.9198 78.6671 13.9457 81.93 16.4782 84.0972C19.1933 86.4227 25.8775 85.3147 26.2184 82.4049C26.5593 79.495 21.19 77.2182 18.341 77.8757Z" fill="#FEBD9D" stroke="#F49E74" stroke-width="1.11146" stroke-linecap="round" stroke-linejoin="round"/>
<path d="M18.0601 72.5186C14.5536 72.0072 13.6892 75.4772 16.1973 78.2166C18.7053 80.956 26.9723 81.5161 27.435 78.314C27.8976 75.1119 20.1907 72.8352 18.0601 72.5186Z" fill="#FEBD9D" stroke="#F49E74" stroke-width="1.11146" stroke-linecap="round" stroke-linejoin="round"/>
<path d="M14.932 66.5283C19.3394 65.4812 28.8848 71.9584 28.5074 73.9673C28.0447 76.4876 23.5521 76.8772 17.1601 74.1621C11.1699 71.6297 12.7648 67.0396 14.932 66.5283Z" fill="#FEBD9D" stroke="#F49E74" stroke-width="1.11146" stroke-linecap="round" stroke-linejoin="round"/>
<mask id="mask0_1378_3748" style="mask-type:alpha" maskUnits="userSpaceOnUse" x="16" y="39" width="214" height="152">
<path d="M16.0364 39.8037H229.196V190.151H16.0364C16.0364 131.437 16.0364 98.5182 16.0364 39.8037Z" fill="#C4C4C4"/>
</mask>
<g mask="url(#mask0_1378_3748)">
<path d="M227.219 115.144C213.534 114.474 202.199 126.832 198.692 141.016C198.583 141.406 198.497 141.844 198.412 142.307C198.035 144.491 197.775 146.694 197.633 148.906C196.172 167.631 197.548 204.912 197.633 205.74C197.694 206.044 187.893 205.74 174.439 205.106C169.472 204.875 163.981 204.619 158.283 204.327C129.257 202.903 94.7889 200.979 94.7889 200.979L92.7069 177.712C92.7069 177.712 88.3603 185.017 73.5187 199.396C58.6771 213.775 34.9233 205.74 37.4801 187.708C39.075 176.385 45.7714 168.094 53.8679 154.238C56.303 149.94 59.0059 145.119 61.6722 139.506C65.2152 132.043 68.673 124.896 71.9725 118.48C73.4213 115.643 74.8458 112.952 76.2216 110.407C81.4326 100.801 86.1079 93.5205 89.8701 90.1236C101.181 79.8964 125.397 85.7892 131.85 87.859C141.481 90.9892 151.473 92.8714 161.582 93.4596C175.9 94.4579 197.633 100.631 209.151 104.636C215.808 106.866 221.937 110.438 227.158 115.131L227.219 115.144Z" fill="#7084DA"/>
<path d="M236.849 136.402C224.321 123.825 205.291 118.334 186.2 135.355C163.992 155.139 146.947 158.573 121.964 129.681C103.896 108.788 97.6131 103.455 76.27 110.407C81.481 100.801 86.1562 93.5205 89.9184 90.1236C101.229 79.8964 125.446 85.7892 131.899 87.859C141.529 90.9892 151.521 92.8714 161.63 93.4596C175.949 94.4579 197.681 100.631 209.199 104.636C215.856 106.866 221.985 110.438 227.206 115.131C232.137 119.076 235.059 126.978 236.849 136.402Z" fill="#7084DA"/>
<path d="M71.6319 172.355C63.6815 181.012 56.4738 162.225 53.8926 154.238C56.3277 149.94 59.0306 145.119 61.697 139.506C65.2399 132.043 68.6977 124.896 71.9972 118.48C77.8778 127.477 69.9274 135.72 69.3673 139.798C67.9794 150.683 83.101 159.924 71.6319 172.355Z" fill="#445FD1"/>
<path d="M21.6281 105.623C33.9494 108.216 53.1011 96.6982 53.1011 96.6982C53.1011 96.6982 63.657 143.804 66.4086 154.251C69.1602 164.697 86.7899 205.618 52.4436 207.298C30.4064 208.369 28.9211 166.474 27.6305 152.68C26.3399 138.885 21.6281 105.623 21.6281 105.623Z" fill="#7084DA"/>
<path d="M29.7972 111.004C39.2817 111.674 49.8498 105.294 49.8498 105.294" stroke="#445FD1" stroke-width="1.11146" stroke-linecap="round" stroke-linejoin="round"/>
<path d="M53.1009 96.6982C53.1009 96.6982 63.6568 143.804 66.4084 154.251C67.9181 159.949 73.8475 174.717 73.3483 187.233" stroke="#445FD1" stroke-width="1.11146" stroke-linecap="round" stroke-linejoin="round"/>
<path d="M121.964 95.5538C128.052 106.962 144.416 117.92 164.091 102.786C164.091 102.786 166.209 96.5035 165.99 96.5035C165.771 96.5035 124.753 91.536 124.753 91.536L121.964 95.5538Z" fill="white"/>
<path d="M138.157 81.4062C133.093 80.2617 125.739 81.5401 120.674 89.3201C115.609 97.1001 114.964 103.529 115.256 103.456C115.548 103.382 123.182 98.5854 126.676 98.8898C130.445 99.5303 134.17 100.409 137.829 101.52L138.157 81.4062Z" fill="#F1B1C2"/>
<path d="M160.998 83.683C160.998 83.683 172.199 83.756 173.709 91.6091C175.219 99.4621 171.067 108.874 165.99 113.232C160.913 117.591 163.713 106.95 145.511 101.958L160.998 83.683Z" fill="#F1B1C2"/>
<path d="M166.464 92.8631C166.464 92.8631 160.242 102.323 146.375 102.542C132.507 102.762 129.841 94.4824 129.841 94.4824C131.338 90.7324 133.152 82.7333 134.309 77.1205C135.04 73.5775 135.527 71.0329 135.527 71.0329C135.527 71.0329 137.816 48.8253 161.63 50.1646L162.032 53.8171L166.464 92.8631Z" fill="#FEBD9D"/>
<path d="M134.309 77.2911C135.039 73.7481 135.526 71.2035 135.526 71.2035L149.078 64.848C149.078 64.848 151.22 80.3227 134.309 77.2911Z" fill="#F49E74"/>
<path d="M92.7429 177.712C90.8314 155.797 90.8314 138.118 90.8314 138.118" stroke="#445FD1" stroke-width="1.11146" stroke-linecap="round" stroke-linejoin="round"/>
</g>
<path d="M183.219 230.906C182.058 230.481 180.951 229.921 179.92 229.238C172.98 224.66 172.383 215.736 174.49 205.107C176.121 196.962 179.36 187.818 182.489 178.857C186.068 168.642 189.575 158.671 190.561 150.696C190.707 149.576 190.792 148.504 190.829 147.482C191.009 141.356 192.13 135.295 194.153 129.511C199.875 113.403 212.415 103.261 227.208 115.132C232.078 119.065 235.049 126.966 236.839 136.39C237.484 139.75 237.983 143.306 238.397 146.934C239.761 159.267 239.944 172.502 240.552 182.4C243.535 230.249 232.078 249.34 183.219 230.906Z" fill="#7084DA"/>
<path d="M236.85 136.402C226.075 125.578 210.454 120.002 194.151 129.511C199.874 113.403 212.414 103.261 227.207 115.132C232.138 119.077 235.06 126.979 236.85 136.402Z" fill="#7084DA"/>
<path d="M197.682 205.74C197.743 206.045 187.942 205.74 174.488 205.107C169.521 204.876 164.03 204.62 158.332 204.328C148.592 199.933 142.504 193.577 147.703 184.47C161.851 159.718 187.881 194.016 189.196 169.47C190.109 152.656 194.188 149.016 197.634 148.906C196.173 167.632 197.548 204.888 197.682 205.74Z" fill="#445FD1"/>
<path d="M201.007 133.711C199.072 138.562 197.934 143.693 197.635 148.906C196.332 167.644 197.549 204.912 197.635 205.74" stroke="#445FD1" stroke-width="1.11146" stroke-linecap="round" stroke-linejoin="round"/>
<path d="M183.218 230.906C182.057 230.481 180.95 229.921 179.919 229.238C191.108 231.674 207.837 233.804 215.227 227.51C226.854 217.611 219.464 204.925 225.893 197.936C232.321 190.947 241.586 188.695 238.409 146.983C239.772 159.316 239.955 172.551 240.564 182.449C243.534 230.249 232.078 249.34 183.218 230.906Z" fill="#445FD1"/>
<path d="M155.213 146.958C156.991 138.959 146.958 139.324 146.958 139.324C147.847 131.946 138.083 129.912 135.83 137.096C127.904 134.661 125.396 137.096 124.239 141.272L155.213 146.958Z" fill="#ADB9EE"/>
<path d="M141.687 140.091C142.998 140.091 144.061 139.028 144.061 137.717C144.061 136.405 142.998 135.342 141.687 135.342C140.375 135.342 139.312 136.405 139.312 137.717C139.312 139.028 140.375 140.091 141.687 140.091Z" fill="#F9F9F9" stroke="#ADB9EE" stroke-width="1.49409" stroke-linecap="round" stroke-linejoin="round"/>
<path d="M109.166 135.355L94.3605 215.638L153.155 227.509L168.946 147.116L109.166 135.355Z" fill="#F9F9F9" stroke="#ADB9EE" stroke-width="1.49409" stroke-linecap="round" stroke-linejoin="round"/>
<path d="M127.282 188.548C124.275 196.365 124.104 204.571 125.48 207.323C125.48 207.323 131.093 208.357 136.693 193.151L127.282 188.548Z" fill="#445FD1"/>
<path d="M134.94 173.475C121.486 168.861 115.058 166.061 112.635 165.403C110.212 164.746 101.458 164.015 100.058 165.403C99.4401 166.068 99.0178 166.89 98.8373 167.78C98.6569 168.669 98.7253 169.591 99.0352 170.444C99.4979 172.307 98.0125 173.658 97.8177 175.545C97.6229 177.432 99.8753 177.98 99.4005 179.855C98.9256 181.73 97.4524 183.763 98.4751 185.821C99.4979 187.879 97.4524 190.009 99.4005 192.53C101.348 195.05 121.182 196.255 125.529 195.33L134.051 199.141C134.051 199.141 149.088 183.642 134.94 173.475Z" fill="#FEBD9D"/>
<path d="M215.297 227.509C211.802 233.828 203.036 236.884 186.417 231.856C181.924 230.504 177.59 229.092 173.451 227.668C166.584 225.318 160.253 222.907 154.579 220.606C144.684 216.67 134.996 212.233 125.553 207.311C128.043 204.543 130.051 201.379 131.495 197.948C132.402 195.912 133.147 193.807 133.723 191.653C135.275 185.697 135.688 179.5 134.94 173.39C137.205 174.072 139.64 174.762 142.245 175.46C148.443 177.153 155.382 178.918 162.42 180.769C183.507 186.32 205.435 192.688 210.78 200.602C211.267 201.32 211.729 202.063 212.168 202.818C212.338 203.11 212.521 203.414 212.679 203.719C212.728 203.797 212.773 203.879 212.813 203.962C213.008 204.315 213.203 204.693 213.385 205.058C213.718 205.699 214.022 206.345 214.298 206.994C217.354 214.238 218.243 222.079 215.297 227.509Z" fill="#7084DA"/>
<path d="M134.941 173.475C159.084 180.78 202.866 189.047 210.731 200.687C212.09 202.71 213.268 204.849 214.25 207.079" stroke="#445FD1" stroke-width="1.11146" stroke-linecap="round" stroke-linejoin="round"/>
<path d="M142.148 175.509C143.645 190.643 135.829 205.168 135.829 205.168" stroke="#445FD1" stroke-width="1.11146" stroke-linecap="round" stroke-linejoin="round"/>
<path d="M215.224 227.509C211.73 233.828 202.964 236.884 186.344 231.856C181.852 230.504 177.517 229.092 173.378 227.667C183.106 230.236 206.166 235.228 215.224 227.509Z" fill="#445FD1"/>
<path d="M161.63 50.2986L162.044 53.9512C153.606 67.0882 142.088 71.2035 135.526 71.2035C124.69 68.5006 120.989 58.7482 120.356 48.2897C120.193 45.7845 120.185 43.2716 120.331 40.7654C120.841 33.6678 122.065 26.6397 123.984 19.7875C123.984 19.7875 156.528 4.6415 158.781 35.043C158.781 35.043 165.757 33.8255 167.06 41.5324C168.07 47.9366 161.63 50.2986 161.63 50.2986Z" fill="#FEBD9D"/>
<path d="M157.017 44.6492C159.732 40.6314 164.03 41.0697 164.48 41.8368" stroke="#F49E74" stroke-width="1.11146" stroke-linecap="round" stroke-linejoin="round"/>
<path d="M158.173 43.2733C162.178 40.9235 164.358 46.1953 159.293 46.1953" stroke="#F49E74" stroke-width="1.11146" stroke-linecap="round" stroke-linejoin="round"/>
<path d="M156.419 49.3488C157.172 49.866 158.025 50.2181 158.923 50.3818C159.821 50.5454 160.744 50.517 161.63 50.2984" stroke="#F49E74" stroke-width="1.11146" stroke-linecap="round" stroke-linejoin="round"/>
<path d="M168.242 31.902C171.992 37.0399 166.367 39.2071 166.367 39.2071C165.792 38.384 165.039 37.7014 164.163 37.2104C163.61 36.8852 162.991 36.6874 162.351 36.6313C161.712 36.5753 161.068 36.6623 160.466 36.8862C159.865 37.11 159.32 37.465 158.873 37.9255C158.426 38.3859 158.087 38.9402 157.881 39.548C150.222 39.7063 153.522 33.7283 153.522 33.7283C146.655 36.4677 146.436 29.4426 149.394 26.2649C144.037 32.2794 137.219 26.2649 138.339 20.8469C136.44 26.7641 129.683 26.9345 130.584 22.0644C130.003 23.0765 129.3 24.0129 128.49 24.8525C123.839 29.5157 119.687 24.5238 121.428 20.8347C114.464 27.4702 111.444 20.0433 118.092 16.0499C112.832 11.7398 119.042 5.60351 123.291 8.74472C122.329 1.11086 130.194 0.769948 133.652 5.22608C135.016 -3.16265 145.511 1.41523 145.937 5.39653C153.668 -0.00926667 159.658 3.98421 158.879 12.7625C162.008 8.58644 168.704 11.0337 166.184 21.7479C172.552 21.2852 173.66 29.2843 168.242 31.902Z" fill="#683F1D"/>
<path d="M164.163 37.2103C163.609 36.8851 162.99 36.6873 162.351 36.6313C161.712 36.5752 161.068 36.6622 160.466 36.8861C159.864 37.1099 159.32 37.465 158.873 37.9254C158.426 38.3858 158.087 38.9401 157.88 39.548C150.222 39.7062 153.522 33.7282 153.522 33.7282C146.655 36.4676 146.436 29.4425 149.394 26.2648C144.037 32.2793 137.219 26.2648 138.339 20.8468C136.44 26.764 129.683 26.9344 130.584 22.0643C130.003 23.0764 129.3 24.0128 128.489 24.8525C126.614 19.1666 130.815 11.6667 137.231 15.1123C138.071 10.5466 148.566 7.58798 148.505 19.1544C152.389 13.7243 161.18 15.5871 157.028 25.9239C160.291 23.3427 167.815 27.5797 164.163 37.2103Z" fill="#683F1D"/>
</svg>
