<svg width="54" height="54" viewBox="0 0 54 54" fill="none" xmlns="http://www.w3.org/2000/svg">
<rect width="54" height="54" rx="27" fill="#AD73F9"/>
<path d="M15 16.6184C15 15.8631 15.5915 15.25 16.2896 15.25H39.7104C40.4228 15.25 41 15.8589 41 16.6184V35.7763C41 36.5317 40.4085 37.1447 39.7104 37.1447H16.2896C16.1195 37.1444 15.9511 37.1087 15.7941 37.0396C15.6371 36.9706 15.4946 36.8696 15.3748 36.7425C15.255 36.6153 15.1602 36.4645 15.0959 36.2987C15.0316 36.1329 14.999 35.9554 15 35.7763V16.6184ZM17.6 17.9868V34.4079H38.4V17.9868H17.6ZM18.9 38.5132H37.1V41.25H18.9V38.5132Z" fill="white"/>
</svg>
